<svg xmlns="http://www.w3.org/2000/svg" viewBox="0 0 635.4 148.7">
  <path d="M307 118l15-49h17l-15 49h21L382 0h-21l-16 49h-17l16-49h-22l-37 118h22zM436 115q1 3 4 3h85q3 0 6-3a22 22 0 005-9L569 0h-22l-29 92h-17l29-92h-21l-29 92h-17l29-92h-22l-33 106q-2 5-1 9M635 0h-25l-26 41 13-41h-22l-37 118h22l13-40v40h25V59l37-59zM210 118h22l17-53 45-65h-26l-18 25-1-25h-27l5 65-17 53zM144 118l30-92h16l-29 92h22l33-106a14 14 0 001-9q-1-3-4-3h-53l-37 118zM31 118l29-92h20l8-26H27l-8 26h20l-29 92h21zM107 26h17l-21 67H86zm-48 89q1 3 4 3h46q3 0 6-3a22 22 0 005-9l30-94a14 14 0 000-9q-1-3-4-3h-46q-3 0-6 3a22 22 0 00-5 9l-29 94q-2 5-1 9M198 135l-2 4h3l-1-4z"/>
  <path d="M521 135h-5a1 1 0 00-1-1 4 4 0 00-1-1l-3 1 1 1 6 1c2 0 3 1 3 4-1 3-4 4-9 4-4 0-8 0-8-4h7a1 1 0 000 1 4 4 0 001 0l3-1-1-1-6-1c-2 0-3-1-2-3 1-4 4-4 8-4 6 0 8 1 7 4m-30-1h-9v2h8l-1 3h-8v2h8l-1 3h-13l3-13h13zm-33 10h-5l3-13h5zm-19-9a4 4 0 01-3 2v1c1 0 2 0 1 1v3a2 2 0 000 2h-5a8 8 0 010-3l-1-1h-3l-1 4h-5l3-13h10a6 6 0 013 1 3 3 0 011 3m-31-1h-9v2h8l-1 3h-8v2h8v3h-14l3-13h14zm-30 1h-6a1 1 0 00-1-1 4 4 0 00-1-1l-2 1v1l6 1c2 0 4 1 3 4s-3 4-9 4c-4 0-8 0-7-4h6a1 1 0 000 1 4 4 0 002 0l2-1-1-1-5-1c-3 0-3-1-3-3 1-4 4-4 9-4s7 1 7 4m-52-1h-9v2h8l-1 3h-8l-1 2h9l-1 3h-13l3-13h13zm-30 1a4 4 0 01-3 2v1l1 1v3a2 2 0 000 2h-6a8 8 0 011-3l-1-1h-4l-1 4h-5l3-13h11a6 6 0 013 1 3 3 0 011 3m-33 4c-1 4-4 5-9 5s-7-1-6-5l2-8h5l-2 8c-1 1 0 2 2 2s3-1 3-2l2-8h5zm-29-5h-5l-2 10h-5l2-10h-5l1-3h15zm-35 10v-2h-5l-1 2h-6l9-13h6l2 13zm-26 0h-6l-4-7-1 7h-5l3-13h6l3 7 2-7h5zm-31-9h-5a1 1 0 00-1-1 3 3 0 00-2 0c-2 0-3 1-4 3 0 3 1 4 3 4a3 3 0 003-2h-2l1-2h7l-2 7h-2v-1l-6 1c-4 0-8-1-7-7 1-5 6-6 10-6 5 0 8 1 7 4m-35 9h-5l3-13h5zm-19-9h-6a1 1 0 000-1 4 4 0 00-2-1l-2 1v1l6 1c3 0 4 1 3 4 0 3-3 4-9 4-4 0-8 0-7-4h6a1 1 0 000 1 4 4 0 002 0l2-1-1-1-5-1c-2 0-3-1-3-3 1-4 5-4 9-4 5 0 7 1 7 4m282-9l44-79-2 46h-18l-8 25h48l7-118h-24l-71 126H7l-7 23h590l9-23z"/>
  <path d="M432 134h-3l-1 3h4a1 1 0 002-2l-2-1M289 134h-3l-1 3h4a1 1 0 001-2c1-1 0-1-1-1"/>
</svg>
